<svg xmlns="http://www.w3.org/2000/svg" viewBox="0 0 100 100" width="100%" height="100%">
  <defs>
    <linearGradient id="rose_metallic" x1="0%" y1="0%" x2="100%" y2="100%">
      <stop offset="0%" stop-color="#f5e0d4"/>
      <stop offset="25%" stop-color="#e2a68e"/>
      <stop offset="50%" stop-color="#c1785e"/>
      <stop offset="75%" stop-color="#e2a68e"/>
      <stop offset="100%" stop-color="#8b3e23"/>
    </linearGradient>
    <linearGradient id="bg" x1="0%" y1="0%" x2="100%" y2="100%">
      <stop offset="0%" stop-color="#2a2a30"/>
      <stop offset="100%" stop-color="#151518"/>
    </linearGradient>
  </defs>
  
  <rect width="100" height="100" rx="20" fill="url(#bg)"/>
  
  <circle cx="50" cy="50" r="38" fill="none" stroke="url(#rose_metallic)" stroke-width="4"/>
  <circle cx="50" cy="50" r="33" fill="none" stroke="url(#rose_metallic)" stroke-width="1.5" opacity="0.7"/>
  
  <path d="M 40 30 L 55 30 C 65 30, 68 35, 68 41 C 68 47, 65 51, 57 52 L 68 68 L 56 68 L 46 53 L 45 53 L 45 68 L 36 68 L 36 30 Z M 45 37 L 45 47 L 54 47 C 58 47, 59 45, 59 41 C 59 38, 58 37, 54 37 Z" fill="url(#rose_metallic)"/>
</svg>
